<?xml version="1.0" encoding="UTF-8"?>
<svg id="Layer_1" data-name="Layer 1" xmlns="http://www.w3.org/2000/svg" viewBox="0 0 1821.09 896">
  <defs>
    <style>
      .cls-1 {
        fill: #3c8dcc;
      }

      .cls-2 {
        fill: #29783b;
      }

      .cls-3 {
        fill: #e07126;
      }

      .cls-4 {
        fill: #4ba847;
      }
    </style>
  </defs>
  <path class="cls-4" d="M945.52,77.96s11.54-.03,13.5,0c74.56,1.15,200.1,70.39,200.1,70.39,0,0-29.47,72-80.28,72.61-50.81.61-62.73-30.17-118.13-32.15l-15.18-110.85Z"/>
  <path class="cls-2" d="M961.71,817.23c153.62-7.99,243.1-100.94,243.1-211.79,0-103.12-64.28-157.36-155.14-192.3l-93.65-40.76-29.61-11.48c-51.55-20.57-92.14-42.35-92.14-89.21s36.31-76.32,92.14-82.15l7.26-.35-14.77-108.78c-130.99,10.25-213.1,92.4-213.1,198.75s77.38,160.16,152.36,189.35l68.26,29.67,29.87,12.98c69.66,29.37,118.54,46.41,118.54,110.02,0,48.79-42.15,84.71-121.69,86.27l-6.37-.03,14.94,109.82Z"/>
  <path class="cls-1" d="M294.04,699.31c-29.84-11.4-65.61-36.51-117.95-86.53-21.04-20.11-55.78-34.86-77.87-34.86s-49.45,19.13-49.45,19.13l-20.03,20.73c126.17,144.34,209.48,188.96,281.13,198.24l-15.84-116.71Z"/>
  <path class="cls-3" d="M348.55,90.33h-195.72v30.92s2.9,32.96,23.98,51.24c45.08,29.02,117.55,24.62,117.55,24.62h68.68l-14.5-106.79Z"/>
  <path class="cls-2" d="M586.28,201.15c-6.05-20.85-15.59-47.29-35.97-69.61-39.99-43.8-115.4-41.2-115.4-41.2h-57.13l68.56,475.39c0,107.51-21.44,141.86-108.16,141.86-5.36,0-10.73-.34-16.2-1.07l15.13,111.47c1.62.03,3.24.07,4.85.07,187.61,0,252.08-112.41,252.08-248.83v-309.26l62.16-62.6-69.91,3.79ZM501.41,198.97c-9.33,0-16.9-7.57-16.9-16.9s7.57-16.9,16.9-16.9,16.9,7.56,16.9,16.9-7.57,16.9-16.9,16.9Z"/>
  <path class="cls-4" d="M1468.41,701.21c-6.84.45-13.81.73-20.98.73h-52.17V220.97h-127v554.54c0,16.26,13.18,29.44,29.44,29.44h164.25c6.93,0,13.74-.17,20.49-.46l-14.03-103.28Z"/>
  <path class="cls-2" d="M1455.18,91.02l-138.17-.76v.76h-19.83c-15.97,0-28.92,12.95-28.92,28.92v73.75h122.88l56.29.33c136.25,0,214.25,75.72,214.25,250.69,0,154.08-60.02,235.76-166.71,253.51l14.17,104.3c176.04-18.06,283.22-140.02,283.22-357.8,0-235.94-126.47-353.69-337.17-353.69Z"/>
  <path class="cls-4" d="M921.49,708.87c-29.84-11.4-65.61-36.51-117.95-86.53-21.04-20.11-55.78-34.86-77.87-34.86s-49.45,19.13-49.45,19.13l-20.03,20.73c126.17,144.34,209.48,181.43,281.13,190.71l-15.84-109.18Z"/>
</svg>